<mxfile host="app.diagrams.net" modified="2023-10-29T23:46:51.615Z" agent="Mozilla/5.0 (Windows NT 10.0; Win64; x64) AppleWebKit/537.36 (KHTML, like Gecko) Chrome/118.0.0.0 Safari/537.36" etag="uRMvCr4o9utiMztIEOGt" version="22.0.8" type="github">
  <diagram id="R2lEEEUBdFMjLlhIrx00" name="Page-1">
    <mxGraphModel dx="2074" dy="1156" grid="1" gridSize="10" guides="1" tooltips="1" connect="1" arrows="1" fold="1" page="1" pageScale="1" pageWidth="827" pageHeight="1169" background="#FFFFFF" math="0" shadow="0" extFonts="Permanent Marker^https://fonts.googleapis.com/css?family=Permanent+Marker">
      <root>
        <mxCell id="0" />
        <mxCell id="1" parent="0" />
        <mxCell id="ygpdyX0wladh9Wm4Dj0t-1" value="" style="rounded=0;whiteSpace=wrap;html=1;" parent="1" vertex="1">
          <mxGeometry x="10" y="60" width="800" height="1045" as="geometry" />
        </mxCell>
        <mxCell id="fVMxTpHwQSE03vxhCAzI-126" style="edgeStyle=orthogonalEdgeStyle;rounded=0;orthogonalLoop=1;jettySize=auto;html=1;exitX=0;exitY=1;exitDx=0;exitDy=0;entryX=1;entryY=0.5;entryDx=0;entryDy=0;dashed=1;dashPattern=1 2;endArrow=none;endFill=0;" parent="1" source="fVMxTpHwQSE03vxhCAzI-1" target="fVMxTpHwQSE03vxhCAzI-119" edge="1">
          <mxGeometry relative="1" as="geometry">
            <Array as="points">
              <mxPoint x="264" y="585" />
              <mxPoint x="264" y="615" />
            </Array>
          </mxGeometry>
        </mxCell>
        <mxCell id="fVMxTpHwQSE03vxhCAzI-127" style="edgeStyle=orthogonalEdgeStyle;rounded=0;orthogonalLoop=1;jettySize=auto;html=1;exitX=0.25;exitY=1;exitDx=0;exitDy=0;entryX=1;entryY=0.5;entryDx=0;entryDy=0;dashed=1;dashPattern=1 2;endArrow=none;endFill=0;" parent="1" source="fVMxTpHwQSE03vxhCAzI-1" target="fVMxTpHwQSE03vxhCAzI-120" edge="1">
          <mxGeometry relative="1" as="geometry">
            <Array as="points">
              <mxPoint x="279" y="665" />
            </Array>
          </mxGeometry>
        </mxCell>
        <mxCell id="fVMxTpHwQSE03vxhCAzI-128" style="edgeStyle=orthogonalEdgeStyle;rounded=0;orthogonalLoop=1;jettySize=auto;html=1;exitX=0.5;exitY=1;exitDx=0;exitDy=0;entryX=0.5;entryY=0;entryDx=0;entryDy=0;dashed=1;dashPattern=1 2;endArrow=none;endFill=0;" parent="1" source="fVMxTpHwQSE03vxhCAzI-1" target="fVMxTpHwQSE03vxhCAzI-121" edge="1">
          <mxGeometry relative="1" as="geometry">
            <Array as="points">
              <mxPoint x="294" y="585" />
              <mxPoint x="294" y="691" />
              <mxPoint x="274" y="691" />
            </Array>
          </mxGeometry>
        </mxCell>
        <mxCell id="fVMxTpHwQSE03vxhCAzI-130" style="edgeStyle=orthogonalEdgeStyle;rounded=0;orthogonalLoop=1;jettySize=auto;html=1;exitX=1;exitY=1;exitDx=0;exitDy=0;entryX=0;entryY=0.5;entryDx=0;entryDy=0;dashed=1;dashPattern=1 2;endArrow=none;endFill=0;" parent="1" source="fVMxTpHwQSE03vxhCAzI-1" target="fVMxTpHwQSE03vxhCAzI-123" edge="1">
          <mxGeometry relative="1" as="geometry">
            <Array as="points">
              <mxPoint x="334" y="585" />
              <mxPoint x="334" y="635" />
              <mxPoint x="384" y="635" />
            </Array>
          </mxGeometry>
        </mxCell>
        <mxCell id="fVMxTpHwQSE03vxhCAzI-131" style="edgeStyle=orthogonalEdgeStyle;rounded=0;orthogonalLoop=1;jettySize=auto;html=1;exitX=1;exitY=0.5;exitDx=0;exitDy=0;entryX=0;entryY=0.5;entryDx=0;entryDy=0;endArrow=none;endFill=0;dashed=1;dashPattern=1 2;" parent="1" source="fVMxTpHwQSE03vxhCAzI-1" target="fVMxTpHwQSE03vxhCAzI-124" edge="1">
          <mxGeometry relative="1" as="geometry">
            <Array as="points">
              <mxPoint x="354" y="585" />
              <mxPoint x="344" y="585" />
              <mxPoint x="344" y="615" />
            </Array>
          </mxGeometry>
        </mxCell>
        <mxCell id="fVMxTpHwQSE03vxhCAzI-1" value="ENCARGADO" style="whiteSpace=wrap;html=1;align=center;fillColor=#f5f5f5;fontColor=#333333;strokeColor=#666666;" parent="1" vertex="1">
          <mxGeometry x="254" y="545" width="100" height="40" as="geometry" />
        </mxCell>
        <mxCell id="fVMxTpHwQSE03vxhCAzI-2" value="OBRA" style="whiteSpace=wrap;html=1;align=center;fillColor=#f5f5f5;fontColor=#333333;strokeColor=#666666;" parent="1" vertex="1">
          <mxGeometry x="594" y="300" width="100" height="40" as="geometry" />
        </mxCell>
        <mxCell id="fVMxTpHwQSE03vxhCAzI-32" style="edgeStyle=orthogonalEdgeStyle;rounded=0;orthogonalLoop=1;jettySize=auto;html=1;exitX=1;exitY=0.5;exitDx=0;exitDy=0;entryX=0;entryY=0.5;entryDx=0;entryDy=0;endArrow=none;endFill=0;" parent="1" source="fVMxTpHwQSE03vxhCAzI-3" target="fVMxTpHwQSE03vxhCAzI-11" edge="1">
          <mxGeometry relative="1" as="geometry" />
        </mxCell>
        <mxCell id="fVMxTpHwQSE03vxhCAzI-85" style="edgeStyle=orthogonalEdgeStyle;rounded=0;orthogonalLoop=1;jettySize=auto;html=1;exitDx=0;exitDy=0;entryX=0.5;entryY=1;entryDx=0;entryDy=0;endArrow=none;endFill=0;dashed=1;dashPattern=1 2;" parent="1" source="fVMxTpHwQSE03vxhCAzI-84" target="fVMxTpHwQSE03vxhCAzI-42" edge="1">
          <mxGeometry relative="1" as="geometry" />
        </mxCell>
        <mxCell id="fVMxTpHwQSE03vxhCAzI-142" style="edgeStyle=orthogonalEdgeStyle;rounded=0;orthogonalLoop=1;jettySize=auto;html=1;exitX=0.25;exitY=1;exitDx=0;exitDy=0;entryX=1;entryY=0;entryDx=0;entryDy=0;dashed=1;dashPattern=1 2;endArrow=none;endFill=0;" parent="1" source="fVMxTpHwQSE03vxhCAzI-3" target="fVMxTpHwQSE03vxhCAzI-135" edge="1">
          <mxGeometry relative="1" as="geometry">
            <Array as="points">
              <mxPoint x="269" y="340" />
            </Array>
          </mxGeometry>
        </mxCell>
        <mxCell id="fVMxTpHwQSE03vxhCAzI-143" style="edgeStyle=orthogonalEdgeStyle;rounded=0;orthogonalLoop=1;jettySize=auto;html=1;exitX=0.75;exitY=1;exitDx=0;exitDy=0;entryX=0;entryY=0;entryDx=0;entryDy=0;dashed=1;dashPattern=1 2;endArrow=none;endFill=0;" parent="1" source="fVMxTpHwQSE03vxhCAzI-3" target="fVMxTpHwQSE03vxhCAzI-140" edge="1">
          <mxGeometry relative="1" as="geometry">
            <Array as="points">
              <mxPoint x="294" y="340" />
              <mxPoint x="294" y="380" />
              <mxPoint x="309" y="380" />
            </Array>
          </mxGeometry>
        </mxCell>
        <mxCell id="fVMxTpHwQSE03vxhCAzI-3" value="GALERIA" style="whiteSpace=wrap;html=1;align=center;fillColor=#f5f5f5;fontColor=#333333;strokeColor=#666666;" parent="1" vertex="1">
          <mxGeometry x="234" y="300" width="100" height="40" as="geometry" />
        </mxCell>
        <mxCell id="fVMxTpHwQSE03vxhCAzI-7" style="edgeStyle=orthogonalEdgeStyle;rounded=0;orthogonalLoop=1;jettySize=auto;html=1;exitX=0.5;exitY=0;exitDx=0;exitDy=0;entryX=0.5;entryY=0;entryDx=0;entryDy=0;" parent="1" source="fVMxTpHwQSE03vxhCAzI-6" target="fVMxTpHwQSE03vxhCAzI-6" edge="1">
          <mxGeometry relative="1" as="geometry" />
        </mxCell>
        <mxCell id="fVMxTpHwQSE03vxhCAzI-31" style="edgeStyle=orthogonalEdgeStyle;rounded=0;orthogonalLoop=1;jettySize=auto;html=1;exitX=0.5;exitY=1;exitDx=0;exitDy=0;entryX=0;entryY=0.5;entryDx=0;entryDy=0;strokeColor=default;endArrow=none;endFill=0;" parent="1" source="fVMxTpHwQSE03vxhCAzI-6" target="fVMxTpHwQSE03vxhCAzI-1" edge="1">
          <mxGeometry relative="1" as="geometry" />
        </mxCell>
        <mxCell id="fVMxTpHwQSE03vxhCAzI-6" value="TRABAJA&lt;br&gt;N:N" style="shape=rhombus;perimeter=rhombusPerimeter;whiteSpace=wrap;html=1;align=center;fillColor=#d5e8d4;strokeColor=#82b366;" parent="1" vertex="1">
          <mxGeometry x="24" y="440" width="120" height="60" as="geometry" />
        </mxCell>
        <mxCell id="fVMxTpHwQSE03vxhCAzI-33" style="edgeStyle=orthogonalEdgeStyle;rounded=0;orthogonalLoop=1;jettySize=auto;html=1;exitX=1;exitY=0.5;exitDx=0;exitDy=0;entryX=0;entryY=0.5;entryDx=0;entryDy=0;endArrow=none;endFill=0;" parent="1" source="fVMxTpHwQSE03vxhCAzI-11" target="fVMxTpHwQSE03vxhCAzI-2" edge="1">
          <mxGeometry relative="1" as="geometry" />
        </mxCell>
        <mxCell id="fVMxTpHwQSE03vxhCAzI-11" value="CONTIENE&lt;br&gt;N:1" style="shape=rhombus;perimeter=rhombusPerimeter;whiteSpace=wrap;html=1;align=center;fillColor=#d5e8d4;strokeColor=#82b366;" parent="1" vertex="1">
          <mxGeometry x="414" y="290" width="110" height="60" as="geometry" />
        </mxCell>
        <mxCell id="fVMxTpHwQSE03vxhCAzI-20" value="" style="endArrow=none;html=1;rounded=0;exitX=0.5;exitY=0;exitDx=0;exitDy=0;entryX=0;entryY=0.5;entryDx=0;entryDy=0;" parent="1" source="fVMxTpHwQSE03vxhCAzI-6" target="fVMxTpHwQSE03vxhCAzI-3" edge="1">
          <mxGeometry relative="1" as="geometry">
            <mxPoint x="74" y="320" as="sourcePoint" />
            <mxPoint x="234" y="319.5" as="targetPoint" />
            <Array as="points">
              <mxPoint x="84" y="320" />
            </Array>
          </mxGeometry>
        </mxCell>
        <mxCell id="fVMxTpHwQSE03vxhCAzI-28" value="(0, N)" style="text;strokeColor=none;fillColor=none;spacingLeft=4;spacingRight=4;overflow=hidden;rotatable=0;points=[[0,0.5],[1,0.5]];portConstraint=eastwest;fontSize=12;whiteSpace=wrap;html=1;verticalAlign=middle;align=center;" parent="1" vertex="1">
          <mxGeometry x="184" y="290" width="50" height="30" as="geometry" />
        </mxCell>
        <mxCell id="fVMxTpHwQSE03vxhCAzI-38" style="rounded=0;orthogonalLoop=1;jettySize=auto;html=1;exitX=0;exitY=0.5;exitDx=0;exitDy=0;strokeColor=none;endArrow=none;endFill=0;shadow=1;" parent="1" source="fVMxTpHwQSE03vxhCAzI-29" edge="1">
          <mxGeometry relative="1" as="geometry">
            <mxPoint x="234" y="565" as="targetPoint" />
          </mxGeometry>
        </mxCell>
        <mxCell id="fVMxTpHwQSE03vxhCAzI-29" value="(1, N)" style="text;strokeColor=none;fillColor=none;spacingLeft=4;spacingRight=4;overflow=hidden;rotatable=0;points=[[0,0.5],[1,0.5]];portConstraint=eastwest;fontSize=12;whiteSpace=wrap;html=1;" parent="1" vertex="1">
          <mxGeometry x="214" y="535" width="50" height="30" as="geometry" />
        </mxCell>
        <mxCell id="fVMxTpHwQSE03vxhCAzI-30" value="(0, N)" style="text;strokeColor=none;fillColor=none;spacingLeft=4;spacingRight=4;overflow=hidden;rotatable=0;points=[[0,0.5],[1,0.5]];portConstraint=eastwest;fontSize=12;whiteSpace=wrap;html=1;" parent="1" vertex="1">
          <mxGeometry x="334" y="290" width="50" height="30" as="geometry" />
        </mxCell>
        <mxCell id="fVMxTpHwQSE03vxhCAzI-34" value="(1, 1)" style="text;strokeColor=none;fillColor=none;spacingLeft=4;spacingRight=4;overflow=hidden;rotatable=0;points=[[0,0.5],[1,0.5]];portConstraint=eastwest;fontSize=12;whiteSpace=wrap;html=1;" parent="1" vertex="1">
          <mxGeometry x="554" y="290" width="50" height="30" as="geometry" />
        </mxCell>
        <mxCell id="fVMxTpHwQSE03vxhCAzI-35" value="EJER. 8 -&amp;nbsp; MUSEO&amp;nbsp;" style="text;html=1;align=center;verticalAlign=middle;resizable=0;points=[];autosize=1;strokeColor=#36393d;fillColor=#cce5ff;fontStyle=1" parent="1" vertex="1">
          <mxGeometry x="74" y="120" width="130" height="30" as="geometry" />
        </mxCell>
        <mxCell id="fVMxTpHwQSE03vxhCAzI-40" style="edgeStyle=orthogonalEdgeStyle;rounded=0;orthogonalLoop=1;jettySize=auto;html=1;exitX=0;exitY=0.5;exitDx=0;exitDy=0;entryX=1;entryY=0.5;entryDx=0;entryDy=0;endArrow=none;endFill=0;startArrow=none;startFill=0;strokeColor=none;" parent="1" source="fVMxTpHwQSE03vxhCAzI-28" target="fVMxTpHwQSE03vxhCAzI-28" edge="1">
          <mxGeometry relative="1" as="geometry" />
        </mxCell>
        <mxCell id="fVMxTpHwQSE03vxhCAzI-42" value="codigo" style="ellipse;whiteSpace=wrap;html=1;align=center;fontStyle=4;" parent="1" vertex="1">
          <mxGeometry x="234" y="220" width="100" height="40" as="geometry" />
        </mxCell>
        <mxCell id="fVMxTpHwQSE03vxhCAzI-65" style="edgeStyle=orthogonalEdgeStyle;rounded=0;orthogonalLoop=1;jettySize=auto;html=1;exitX=0;exitY=0.5;exitDx=0;exitDy=0;entryX=0.25;entryY=1;entryDx=0;entryDy=0;endArrow=none;endFill=0;dashed=1;dashPattern=1 1;" parent="1" source="fVMxTpHwQSE03vxhCAzI-46" target="fVMxTpHwQSE03vxhCAzI-2" edge="1">
          <mxGeometry relative="1" as="geometry" />
        </mxCell>
        <mxCell id="fVMxTpHwQSE03vxhCAzI-46" value="fecha_creacion" style="ellipse;whiteSpace=wrap;html=1;align=center;" parent="1" vertex="1">
          <mxGeometry x="684" y="485" width="100" height="40" as="geometry" />
        </mxCell>
        <mxCell id="fVMxTpHwQSE03vxhCAzI-73" style="edgeStyle=orthogonalEdgeStyle;rounded=0;orthogonalLoop=1;jettySize=auto;html=1;exitX=0;exitY=0.5;exitDx=0;exitDy=0;entryX=0.5;entryY=1;entryDx=0;entryDy=0;endArrow=none;endFill=0;dashed=1;dashPattern=1 2;" parent="1" source="fVMxTpHwQSE03vxhCAzI-44" target="fVMxTpHwQSE03vxhCAzI-2" edge="1">
          <mxGeometry relative="1" as="geometry" />
        </mxCell>
        <mxCell id="fVMxTpHwQSE03vxhCAzI-75" style="edgeStyle=orthogonalEdgeStyle;rounded=0;orthogonalLoop=1;jettySize=auto;html=1;exitX=0;exitY=0.5;exitDx=0;exitDy=0;entryX=0.75;entryY=1;entryDx=0;entryDy=0;dashed=1;dashPattern=1 2;endArrow=none;endFill=0;" parent="1" source="fVMxTpHwQSE03vxhCAzI-62" target="fVMxTpHwQSE03vxhCAzI-2" edge="1">
          <mxGeometry relative="1" as="geometry" />
        </mxCell>
        <mxCell id="fVMxTpHwQSE03vxhCAzI-86" value="" style="edgeStyle=orthogonalEdgeStyle;rounded=0;orthogonalLoop=1;jettySize=auto;html=1;exitX=0.5;exitY=0;exitDx=0;exitDy=0;entryDx=0;entryDy=0;endArrow=none;endFill=0;dashed=1;dashPattern=1 2;" parent="1" source="fVMxTpHwQSE03vxhCAzI-3" target="fVMxTpHwQSE03vxhCAzI-84" edge="1">
          <mxGeometry relative="1" as="geometry">
            <mxPoint x="284" y="300" as="sourcePoint" />
            <mxPoint x="284" y="260" as="targetPoint" />
          </mxGeometry>
        </mxCell>
        <mxCell id="fVMxTpHwQSE03vxhCAzI-84" value="" style="shape=waypoint;sketch=0;fillStyle=solid;size=6;pointerEvents=1;points=[];fillColor=none;resizable=0;rotatable=0;perimeter=centerPerimeter;snapToPoint=1;" parent="1" vertex="1">
          <mxGeometry x="274" y="250" width="20" height="20" as="geometry" />
        </mxCell>
        <mxCell id="fVMxTpHwQSE03vxhCAzI-100" value="" style="group" parent="1" vertex="1" connectable="0">
          <mxGeometry x="339" y="485" width="100" height="50" as="geometry" />
        </mxCell>
        <mxCell id="fVMxTpHwQSE03vxhCAzI-98" value="" style="group" parent="fVMxTpHwQSE03vxhCAzI-100" vertex="1" connectable="0">
          <mxGeometry width="100" height="50" as="geometry" />
        </mxCell>
        <mxCell id="fVMxTpHwQSE03vxhCAzI-96" value="dni" style="ellipse;whiteSpace=wrap;html=1;align=center;fontStyle=4;" parent="fVMxTpHwQSE03vxhCAzI-98" vertex="1">
          <mxGeometry width="100" height="40" as="geometry" />
        </mxCell>
        <mxCell id="fVMxTpHwQSE03vxhCAzI-97" value="" style="shape=waypoint;sketch=0;fillStyle=solid;size=6;pointerEvents=1;points=[];fillColor=none;resizable=0;rotatable=0;perimeter=centerPerimeter;snapToPoint=1;container=1;" parent="fVMxTpHwQSE03vxhCAzI-98" vertex="1">
          <mxGeometry x="40" y="30" width="20" height="20" as="geometry" />
        </mxCell>
        <mxCell id="fVMxTpHwQSE03vxhCAzI-99" style="edgeStyle=orthogonalEdgeStyle;rounded=0;orthogonalLoop=1;jettySize=auto;html=1;exitX=1;exitY=0.5;exitDx=0;exitDy=0;entryX=0.862;entryY=0.926;entryDx=0;entryDy=0;entryPerimeter=0;dashed=1;dashPattern=1 2;endArrow=none;endFill=0;" parent="fVMxTpHwQSE03vxhCAzI-100" source="fVMxTpHwQSE03vxhCAzI-1" target="fVMxTpHwQSE03vxhCAzI-97" edge="1">
          <mxGeometry relative="1" as="geometry" />
        </mxCell>
        <mxCell id="fVMxTpHwQSE03vxhCAzI-125" value="" style="group" parent="1" vertex="1" connectable="0">
          <mxGeometry x="144" y="595" width="360" height="130" as="geometry" />
        </mxCell>
        <mxCell id="fVMxTpHwQSE03vxhCAzI-119" value="nombre" style="ellipse;whiteSpace=wrap;html=1;align=center;" parent="fVMxTpHwQSE03vxhCAzI-125" vertex="1">
          <mxGeometry width="100" height="40" as="geometry" />
        </mxCell>
        <mxCell id="fVMxTpHwQSE03vxhCAzI-120" value="apellido" style="ellipse;whiteSpace=wrap;html=1;align=center;" parent="fVMxTpHwQSE03vxhCAzI-125" vertex="1">
          <mxGeometry x="20" y="50" width="100" height="40" as="geometry" />
        </mxCell>
        <mxCell id="fVMxTpHwQSE03vxhCAzI-121" value="fecha_nacimiento" style="ellipse;whiteSpace=wrap;html=1;align=center;" parent="fVMxTpHwQSE03vxhCAzI-125" vertex="1">
          <mxGeometry x="80" y="90" width="100" height="40" as="geometry" />
        </mxCell>
        <mxCell id="fVMxTpHwQSE03vxhCAzI-122" value="sueldo_base" style="ellipse;whiteSpace=wrap;html=1;align=center;" parent="fVMxTpHwQSE03vxhCAzI-125" vertex="1">
          <mxGeometry x="190" y="90" width="100" height="40" as="geometry" />
        </mxCell>
        <mxCell id="fVMxTpHwQSE03vxhCAzI-123" value="trienios" style="ellipse;whiteSpace=wrap;html=1;align=center;" parent="fVMxTpHwQSE03vxhCAzI-125" vertex="1">
          <mxGeometry x="240" y="50" width="100" height="40" as="geometry" />
        </mxCell>
        <mxCell id="fVMxTpHwQSE03vxhCAzI-124" value="numero_hijos" style="ellipse;whiteSpace=wrap;html=1;align=center;" parent="fVMxTpHwQSE03vxhCAzI-125" vertex="1">
          <mxGeometry x="260" width="100" height="40" as="geometry" />
        </mxCell>
        <mxCell id="fVMxTpHwQSE03vxhCAzI-133" value="" style="group" parent="1" vertex="1" connectable="0">
          <mxGeometry x="144" y="355" width="360" height="130" as="geometry" />
        </mxCell>
        <mxCell id="fVMxTpHwQSE03vxhCAzI-134" value="nombre" style="ellipse;whiteSpace=wrap;html=1;align=center;" parent="fVMxTpHwQSE03vxhCAzI-133" vertex="1">
          <mxGeometry width="100" height="40" as="geometry" />
        </mxCell>
        <mxCell id="fVMxTpHwQSE03vxhCAzI-135" value="orientacion" style="ellipse;whiteSpace=wrap;html=1;align=center;" parent="fVMxTpHwQSE03vxhCAzI-133" vertex="1">
          <mxGeometry x="40" y="50" width="100" height="40" as="geometry" />
        </mxCell>
        <mxCell id="fVMxTpHwQSE03vxhCAzI-139" value="gastos" style="ellipse;whiteSpace=wrap;html=1;align=center;" parent="fVMxTpHwQSE03vxhCAzI-133" vertex="1">
          <mxGeometry x="180" width="100" height="40" as="geometry" />
        </mxCell>
        <mxCell id="fVMxTpHwQSE03vxhCAzI-140" value="&lt;font size=&quot;1&quot; style=&quot;&quot;&gt;presupuesto_anua&lt;/font&gt;&lt;font style=&quot;font-size: 10px;&quot;&gt;l&lt;/font&gt;" style="ellipse;whiteSpace=wrap;html=1;align=center;" parent="fVMxTpHwQSE03vxhCAzI-133" vertex="1">
          <mxGeometry x="150" y="50" width="100" height="40" as="geometry" />
        </mxCell>
        <mxCell id="fVMxTpHwQSE03vxhCAzI-129" style="edgeStyle=orthogonalEdgeStyle;rounded=0;orthogonalLoop=1;jettySize=auto;html=1;exitX=0.75;exitY=1;exitDx=0;exitDy=0;entryX=0;entryY=0;entryDx=0;entryDy=0;dashed=1;dashPattern=1 2;endArrow=none;endFill=0;" parent="1" source="fVMxTpHwQSE03vxhCAzI-1" target="fVMxTpHwQSE03vxhCAzI-122" edge="1">
          <mxGeometry relative="1" as="geometry">
            <mxPoint x="329" y="579.19" as="sourcePoint" />
            <mxPoint x="348.7672086751513" y="684.9990146052694" as="targetPoint" />
            <Array as="points">
              <mxPoint x="314" y="585" />
              <mxPoint x="314" y="669" />
              <mxPoint x="349" y="669" />
            </Array>
          </mxGeometry>
        </mxCell>
        <mxCell id="fVMxTpHwQSE03vxhCAzI-141" style="edgeStyle=orthogonalEdgeStyle;rounded=0;orthogonalLoop=1;jettySize=auto;html=1;exitX=0;exitY=0.5;exitDx=0;exitDy=0;entryX=0.5;entryY=0;entryDx=0;entryDy=0;dashed=1;dashPattern=1 2;endArrow=none;endFill=0;" parent="1" source="fVMxTpHwQSE03vxhCAzI-3" target="fVMxTpHwQSE03vxhCAzI-134" edge="1">
          <mxGeometry relative="1" as="geometry">
            <mxPoint x="254" y="340" as="sourcePoint" />
            <mxPoint x="244" y="370" as="targetPoint" />
            <Array as="points">
              <mxPoint x="234" y="340" />
              <mxPoint x="194" y="340" />
            </Array>
          </mxGeometry>
        </mxCell>
        <mxCell id="fVMxTpHwQSE03vxhCAzI-146" style="edgeStyle=orthogonalEdgeStyle;rounded=0;orthogonalLoop=1;jettySize=auto;html=1;exitX=0;exitY=0;exitDx=0;exitDy=0;entryX=0.75;entryY=1;entryDx=0;entryDy=0;dashed=1;dashPattern=1 2;endArrow=none;endFill=0;" parent="1" source="fVMxTpHwQSE03vxhCAzI-139" target="fVMxTpHwQSE03vxhCAzI-3" edge="1">
          <mxGeometry relative="1" as="geometry">
            <Array as="points">
              <mxPoint x="309" y="361" />
            </Array>
          </mxGeometry>
        </mxCell>
        <mxCell id="fVMxTpHwQSE03vxhCAzI-44" value="nombre" style="ellipse;whiteSpace=wrap;html=1;align=center;fontStyle=4;" parent="1" vertex="1">
          <mxGeometry x="704" y="405" width="100" height="40" as="geometry" />
        </mxCell>
        <mxCell id="fVMxTpHwQSE03vxhCAzI-62" value="autor" style="ellipse;whiteSpace=wrap;html=1;align=center;fontStyle=4;" parent="1" vertex="1">
          <mxGeometry x="704" y="355" width="100" height="40" as="geometry" />
        </mxCell>
        <mxCell id="fVMxTpHwQSE03vxhCAzI-87" value="" style="shape=waypoint;sketch=0;fillStyle=solid;size=6;pointerEvents=1;points=[];fillColor=none;resizable=0;rotatable=0;perimeter=centerPerimeter;snapToPoint=1;" parent="1" vertex="1">
          <mxGeometry x="694" y="405" width="20" height="20" as="geometry" />
        </mxCell>
        <mxCell id="fVMxTpHwQSE03vxhCAzI-88" value="" style="shape=waypoint;sketch=0;fillStyle=solid;size=6;pointerEvents=1;points=[];fillColor=none;resizable=0;rotatable=0;perimeter=centerPerimeter;snapToPoint=1;" parent="1" vertex="1">
          <mxGeometry x="694" y="365" width="20" height="20" as="geometry" />
        </mxCell>
        <mxCell id="kG_dBHOLJ7CWQmrbYZGP-1" value="&lt;font style=&quot;font-size: 12px;&quot;&gt;GALERIA (#codigo, nombre, orientacion, presupuesto_anual, gastos)&lt;br&gt;&lt;br&gt;&lt;div style=&quot;text-align: justify;&quot;&gt;&lt;span style=&quot;background-color: initial;&quot;&gt;OBRA (#nombre, #autor, fecha_creacion, cod_galeria)&lt;/span&gt;&lt;/div&gt;&lt;/font&gt;" style="text;html=1;align=center;verticalAlign=middle;resizable=0;points=[];autosize=1;strokeColor=none;fillColor=none;" parent="1" vertex="1">
          <mxGeometry x="74" y="820" width="390" height="60" as="geometry" />
        </mxCell>
        <mxCell id="kG_dBHOLJ7CWQmrbYZGP-5" value="" style="endArrow=none;dashed=1;html=1;rounded=0;entryX=1;entryY=0.25;entryDx=0;entryDy=0;exitX=0;exitY=0.25;exitDx=0;exitDy=0;" parent="1" source="AVAmtDZSmKpI1Q2I607x-1" target="AVAmtDZSmKpI1Q2I607x-1" edge="1">
          <mxGeometry width="50" height="50" relative="1" as="geometry">
            <mxPoint x="304" y="875" as="sourcePoint" />
            <mxPoint x="374" y="875" as="targetPoint" />
          </mxGeometry>
        </mxCell>
        <mxCell id="AVAmtDZSmKpI1Q2I607x-1" value="GALERIA" style="text;html=1;strokeColor=none;fillColor=none;align=center;verticalAlign=middle;whiteSpace=wrap;rounded=0;fontSize=10;" parent="1" vertex="1">
          <mxGeometry x="309" y="870" width="60" height="30" as="geometry" />
        </mxCell>
        <mxCell id="AVAmtDZSmKpI1Q2I607x-3" value="&lt;div style=&quot;text-align: justify;&quot;&gt;&lt;span style=&quot;background-color: initial;&quot;&gt;ENCARGADO (#dni, nombre, apellido, fecha_nacimiento, sueldo_base, trienios, num_hijos)&lt;/span&gt;&lt;/div&gt;&lt;font style=&quot;&quot;&gt;&lt;div style=&quot;text-align: justify;&quot;&gt;&lt;br&gt;&lt;/div&gt;&lt;div style=&quot;text-align: justify;&quot;&gt;&lt;span style=&quot;background-color: initial;&quot;&gt;TRABAJA (#cod_galeria,&amp;nbsp; &amp;nbsp; &amp;nbsp; #dni)&lt;/span&gt;&lt;/div&gt;&lt;/font&gt;" style="text;html=1;align=left;verticalAlign=middle;resizable=0;points=[];autosize=1;strokeColor=none;fillColor=none;" parent="1" vertex="1">
          <mxGeometry x="84" y="900" width="510" height="60" as="geometry" />
        </mxCell>
        <mxCell id="AVAmtDZSmKpI1Q2I607x-6" value="" style="endArrow=none;dashed=1;html=1;rounded=0;exitX=0.056;exitY=0.071;exitDx=0;exitDy=0;exitPerimeter=0;entryX=1;entryY=0;entryDx=0;entryDy=0;" parent="1" source="AVAmtDZSmKpI1Q2I607x-8" target="AVAmtDZSmKpI1Q2I607x-8" edge="1">
          <mxGeometry width="50" height="50" relative="1" as="geometry">
            <mxPoint x="204" y="959.52" as="sourcePoint" />
            <mxPoint x="224" y="959.52" as="targetPoint" />
          </mxGeometry>
        </mxCell>
        <mxCell id="AVAmtDZSmKpI1Q2I607x-8" value="ENCARGADO" style="text;html=1;strokeColor=none;fillColor=none;align=center;verticalAlign=middle;whiteSpace=wrap;rounded=0;fontSize=9;" parent="1" vertex="1">
          <mxGeometry x="224" y="960" width="60" height="20" as="geometry" />
        </mxCell>
        <mxCell id="AVAmtDZSmKpI1Q2I607x-12" value="" style="group" parent="1" vertex="1" connectable="0">
          <mxGeometry x="144" y="960" width="70" height="20" as="geometry" />
        </mxCell>
        <mxCell id="AVAmtDZSmKpI1Q2I607x-10" value="GALERIA" style="text;html=1;strokeColor=none;fillColor=none;align=center;verticalAlign=middle;whiteSpace=wrap;rounded=0;fontSize=9;" parent="AVAmtDZSmKpI1Q2I607x-12" vertex="1">
          <mxGeometry width="70" height="20" as="geometry" />
        </mxCell>
        <mxCell id="AVAmtDZSmKpI1Q2I607x-11" value="" style="endArrow=none;dashed=1;html=1;rounded=0;exitX=0;exitY=0;exitDx=0;exitDy=0;entryX=1;entryY=0;entryDx=0;entryDy=0;" parent="AVAmtDZSmKpI1Q2I607x-12" source="AVAmtDZSmKpI1Q2I607x-10" target="AVAmtDZSmKpI1Q2I607x-10" edge="1">
          <mxGeometry width="50" height="50" relative="1" as="geometry">
            <mxPoint x="98" y="20" as="sourcePoint" />
            <mxPoint x="196" y="20" as="targetPoint" />
          </mxGeometry>
        </mxCell>
      </root>
    </mxGraphModel>
  </diagram>
</mxfile>
